<svg width="24" height="24" viewBox="0 0 24 24" fill="none" xmlns="http://www.w3.org/2000/svg">
<path d="M19.375 15.103C20.0238 13.5613 20.1732 11.855 19.8021 10.224C19.4309 8.59305 18.558 7.11939 17.3059 6.01025C16.0538 4.90111 14.4857 4.21227 12.8218 4.04056C11.158 3.86886 9.48216 4.22293 8.02998 5.053L7.03798 3.316C8.55561 2.44862 10.2742 1.99437 12.0222 1.99858C13.7702 2.00279 15.4865 2.46531 17 3.34C21.49 5.932 23.21 11.482 21.117 16.11L22.459 16.884L18.294 19.098L18.129 14.384L19.375 15.103ZM4.62498 8.897C3.97612 10.4387 3.82676 12.145 4.1979 13.776C4.56903 15.407 5.44199 16.8806 6.69405 17.9897C7.94611 19.0989 9.5143 19.7877 11.1781 19.9594C12.842 20.1311 14.5178 19.7771 15.97 18.947L16.962 20.684C15.4443 21.5514 13.7258 22.0056 11.9778 22.0014C10.2298 21.9972 8.51341 21.5347 6.99998 20.66C2.50998 18.068 0.789978 12.518 2.88298 7.89L1.53998 7.117L5.70498 4.903L5.86998 9.617L4.62398 8.898L4.62498 8.897ZM13.415 14.828L10.584 12L7.75598 14.828L6.34198 13.414L10.585 9.172L13.414 12L16.243 9.172L17.657 10.586L13.414 14.828H13.415Z" fill="#191919"/>
</svg>
